<?xml version="1.0" encoding="UTF-8"?>
<svg version="1.1" xmlns="http://www.w3.org/2000/svg" width="1055" height="687">
<path d="M0 0 C4.09968132 2.04984066 7.16054304 4.56812944 10.5625 7.5625 C11.82464212 8.65986564 13.08767134 9.75621177 14.3515625 10.8515625 C14.97321289 11.39071289 15.59486328 11.92986328 16.23535156 12.48535156 C18.59986658 14.51488271 21.01360529 16.47945893 23.4375 18.4375 C28.48854068 22.53915271 33.40128396 26.78591011 38.30786133 31.05786133 C43.96244531 35.97866074 49.67463329 40.82773721 55.40722656 45.65722656 C57.56442361 47.47583229 59.7181338 49.29854 61.87158203 51.12158203 C62.95299208 52.03697051 64.03469562 52.9520124 65.11669922 53.86669922 C67.87943515 56.20247445 70.63820759 58.54269603 73.390625 60.890625 C74.51020137 61.84400289 75.62999018 62.79713136 76.75 63.75 C77.28713623 64.20753662 77.82427246 64.66507324 78.37768555 65.13647461 C82.30609634 68.46302459 86.33968702 71.61388149 90.48828125 74.66015625 C90.98714844 75.10230469 91.48601563 75.54445313 92 76 C92 76.66 92 77.32 92 78 C89.29215006 78.33772739 86.58383004 78.67030687 83.875 79 C83.11445312 79.09539062 82.35390625 79.19078125 81.5703125 79.2890625 C80.82265625 79.37929687 80.075 79.46953125 79.3046875 79.5625 C78.62390137 79.64628906 77.94311523 79.73007813 77.24169922 79.81640625 C74.48938425 80.04181911 71.76050314 80.01107583 69 80 C68.89654221 94.73520469 68.85116094 109.46966032 68.87302971 124.20523167 C68.88186389 131.04891092 68.8724093 137.89161194 68.81835938 144.73510742 C68.7661755 151.3490781 68.76699516 157.96172407 68.79904556 164.57591057 C68.80277457 167.08948176 68.78923259 169.60314433 68.75750351 172.11651802 C68.57235736 187.85842356 69.59755637 197.93151576 80 210 C81.26168797 211.89541691 82.4977074 213.80864599 83.6875 215.75 C84.23647949 216.61850586 84.78545898 217.48701172 85.35107422 218.38183594 C85.89521973 219.24583008 86.43936523 220.10982422 87 221 C91.60282825 228.28412425 96.26676172 235.5136542 101.15625 242.609375 C104 246.78794643 104 246.78794643 104 249 C93.96441884 250.15831207 83.91670023 250.31607114 73.828125 250.53515625 C71.94186962 250.5783685 70.05561888 250.62178421 68.16937256 250.66539001 C64.2088322 250.75605457 60.24824242 250.84395265 56.28759766 250.92993164 C52.31256913 251.01642372 48.33765225 251.1064917 44.36279297 251.20043945 C42.41764397 251.246288 40.47249423 251.29210514 38.52734375 251.33789062 C37.08354214 251.37192773 37.08354214 251.37192773 35.61057281 251.40665245 C30.77533315 251.51797692 25.94034086 251.61652978 21.10437012 251.69009399 C20.15351784 251.70461798 19.20266556 251.71914196 18.22299957 251.73410606 C16.31613988 251.7631633 14.4092744 251.79184338 12.50240326 251.82013893 C6.82102878 251.91584446 1.15315209 252.1104778 -4.52225876 252.38629627 C-8.12583772 252.55304306 -11.73003492 252.66903003 -15.33582306 252.77621269 C-17.0173042 252.83866008 -18.69811279 252.92418013 -20.3771286 253.03456306 C-25.51740188 253.3675934 -30.0331591 253.48846791 -35 252 C-38.8671524 248.0729457 -40.79959862 244.0621836 -43 239 C-44.02308034 237.16898741 -45.06346251 235.34734983 -46.1328125 233.54296875 C-47.13228969 231.75897698 -48.12963475 229.97378926 -49.125 228.1875 C-53.65095904 220.11934156 -58.25422619 212.10281866 -62.9375 204.125 C-67.72131659 195.96862588 -72.40118631 187.76205763 -77 179.5 C-82.17867685 170.19736073 -87.47497743 160.972224 -92.86206055 151.78881836 C-97.42521661 144.006516 -101.91306354 136.18346361 -106.35791016 128.33300781 C-107.0566626 127.10275879 -107.0566626 127.10275879 -107.76953125 125.84765625 C-108.17792236 125.12586182 -108.58631348 124.40406738 -109.00708008 123.66040039 C-109.89297111 122.02570786 -109.89297111 122.02570786 -111 121 C-111.44690186 121.84892822 -111.89380371 122.69785645 -112.35424805 123.57250977 C-127.29560391 151.93171313 -127.29560391 151.93171313 -134.5 164.5 C-140.15079999 174.36197432 -145.49248046 184.3728958 -150.80163574 194.42114258 C-155.2528471 202.84501453 -159.73667589 211.24333422 -164.40185547 219.55126953 C-167.77297489 225.56065633 -171.04467338 231.62142844 -174.3125 237.6875 C-178.53168511 245.513965 -182.83941822 253.27994021 -187.25 261 C-192.91154538 270.92180405 -198.27377935 280.9874488 -203.60241699 291.09008789 C-208.59658802 300.55290279 -213.7261771 309.91486964 -219.046875 319.19921875 C-223.70589254 327.37556388 -228.11039009 335.67722193 -232.5 344 C-237.85944301 354.16159881 -243.33396355 364.23047681 -249.046875 374.19921875 C-253.70590253 382.37558142 -258.11005515 390.67738356 -262.5 399 C-268.41753213 410.21578955 -274.47376194 421.33078915 -280.77734375 432.3359375 C-285.24581266 440.18961012 -289.61178175 448.10120714 -294 456 C-347.13 456 -400.26 456 -455 456 C-453.54877547 452.37193866 -452.12455815 449.25771216 -450.234375 445.88671875 C-449.68136719 444.89865234 -449.12835938 443.91058594 -448.55859375 442.89257812 C-447.66333984 441.30606445 -447.66333984 441.30606445 -446.75 439.6875 C-446.12738281 438.57955078 -445.50476563 437.47160156 -444.86328125 436.33007812 C-440.07886134 427.84423074 -435.18494065 419.42499183 -430.25292969 411.02416992 C-426.07918633 403.89799724 -422.01593691 396.71613663 -418 389.5 C-412.86368611 380.27068598 -407.59787465 371.12763027 -402.25 362.01953125 C-398.07756041 354.8947181 -394.01504756 347.71453859 -390 340.5 C-384.86368611 331.27068598 -379.59787465 322.12763027 -374.25 313.01953125 C-370.07756041 305.8947181 -366.01504756 298.71453859 -362 291.5 C-356.86368611 282.27068598 -351.59787465 273.12763027 -346.25 264.01953125 C-342.07756041 256.8947181 -338.01504756 249.71453859 -334 242.5 C-328.86368611 233.27068598 -323.59787465 224.12763027 -318.25 215.01953125 C-314.07756041 207.8947181 -310.01504756 200.71453859 -306 193.5 C-300.86368611 184.27068598 -295.59787465 175.12763027 -290.25 166.01953125 C-286.07756041 158.8947181 -282.01504756 151.71453859 -278 144.5 C-272.86368611 135.27068598 -267.59787465 126.12763027 -262.25 117.01953125 C-258.07756041 109.8947181 -254.01504756 102.71453859 -250 95.5 C-244.86368611 86.27068598 -239.59787465 77.12763027 -234.25 68.01953125 C-229.47804181 59.87098658 -224.86122103 51.64188106 -220.26977539 43.390625 C-215.52245608 34.88086304 -210.6429258 26.45319903 -205.70507812 18.05273438 C-205.16173828 17.12783203 -204.61839844 16.20292969 -204.05859375 15.25 C-203.58736084 14.45078125 -203.11612793 13.6515625 -202.63061523 12.828125 C-200.37292836 8.91241236 -198.19508217 4.9511479 -196 1 C-143.86 1 -91.72 1 -38 1 C-33.38 9.58 -28.76 18.16 -24 27 C-18.45167277 37.08971727 -18.45167277 37.08971727 -12.87939453 47.16601562 C-12 49 -12 49 -12 51 C-16.95 51.495 -16.95 51.495 -22 52 C-21.40574219 52.88558594 -20.81148437 53.77117188 -20.19921875 54.68359375 C-19.36191154 55.93485059 -18.52467605 57.18615541 -17.6875 58.4375 C-17.30271484 59.01048828 -16.91792969 59.58347656 -16.52148438 60.17382812 C-11.25287718 68.05631796 -6.15245976 76.03710764 -1 84 C-0.67 56.28 -0.34 28.56 0 0 Z " fill="#3D4142" transform="translate(951,0)"/>
<path d="M0 0 C-1.16027555 3.73287152 -2.42181121 7.0330328 -4.44140625 10.37890625 C-4.93374756 11.20245605 -5.42608887 12.02600586 -5.93334961 12.87451172 C-6.47096924 13.76154785 -7.00858887 14.64858398 -7.5625 15.5625 C-8.74286862 17.53474877 -9.92251912 19.50742745 -11.1015625 21.48046875 C-11.73223633 22.53282715 -12.36291016 23.58518555 -13.01269531 24.66943359 C-16.155964 29.93730479 -19.25578746 35.23044005 -22.35446167 40.52462769 C-23.44544965 42.38858199 -24.5372181 44.25207727 -25.62915039 46.11547852 C-30.66115286 54.70433539 -35.67895221 63.30143293 -40.69116211 71.90185547 C-45.28134624 79.77540974 -49.88878 87.6387568 -54.5 95.5 C-62.02042265 108.32145228 -69.51597761 121.15726175 -77 134 C-84.84541485 147.46289523 -92.70594523 160.9167247 -100.5894165 174.35736084 C-107.74631903 186.55990577 -114.8773696 198.77741794 -122 211 C-129.84639983 224.46458548 -137.70761237 237.92028551 -145.59243774 251.36239624 C-150.40581944 259.56862537 -155.20974826 267.78023777 -160 276 C-165.15263961 284.84159637 -170.32232213 293.67305508 -175.5 302.5 C-183.02042265 315.32145228 -190.51597761 328.15726175 -198 341 C-205.84541485 354.46289523 -213.70594523 367.9167247 -221.5894165 381.35736084 C-230.00946814 395.71357962 -238.39376041 410.09056192 -246.76953125 424.47265625 C-247.39384033 425.54410889 -248.01814941 426.61556152 -248.66137695 427.71948242 C-249.84406891 429.74926513 -251.02624047 431.7793512 -252.20776367 433.80981445 C-252.74763916 434.73624756 -253.28751465 435.66268066 -253.84375 436.6171875 C-254.30974609 437.41753418 -254.77574219 438.21788086 -255.25585938 439.04248047 C-255.83142578 440.01846191 -256.40699219 440.99444336 -257 442 C-257.29817914 442.80323429 -257.59635828 443.60646857 -257.90357316 444.43404329 C-259.27786484 447.56176492 -260.53232562 449.61770965 -263 452 C-268.44798383 453.53422341 -273.86996461 453.3077809 -279.47653198 453.20254517 C-281.19351862 453.20690618 -282.91049878 453.21566252 -284.62744343 453.22843683 C-289.34639224 453.2508146 -294.06307457 453.21078266 -298.78173447 453.16065621 C-303.8696105 453.11750477 -308.95735686 453.13208284 -314.04536438 453.13967896 C-322.86078093 453.14492471 -331.67545783 453.11352825 -340.49068832 453.05730057 C-353.23592699 452.97605833 -365.9808077 452.94998917 -378.72627725 452.93742065 C-399.40430951 452.91552976 -420.08194748 452.84896824 -440.75976562 452.75439453 C-460.84731065 452.66261602 -480.9347486 452.59182616 -501.02246094 452.54931641 C-502.26048776 452.54668917 -503.49851459 452.54406194 -504.77405737 452.54135509 C-510.98482246 452.52830479 -517.19558831 452.51566769 -523.40635467 452.50323606 C-574.93784231 452.39955453 -626.46890193 452.2234107 -678 452 C-678 450 -678 450 -676.671875 448.66015625 C-676.03765625 448.13292969 -675.4034375 447.60570312 -674.75 447.0625 C-671.09026078 443.95431722 -667.52668587 440.75753675 -664 437.5 C-660.06777941 433.87842666 -656.09784289 430.31039602 -652.05859375 426.80859375 C-649.5104335 424.5698875 -647.00589407 422.28589788 -644.5 420 C-641.38092989 417.15475772 -638.25244609 414.3280042 -635.0625 411.5625 C-631.65311482 408.60116544 -628.32203624 405.55849695 -625 402.5 C-621.0671272 398.87912455 -617.09786058 395.31041136 -613.05859375 391.80859375 C-610.5104335 389.5698875 -608.00589407 387.28589788 -605.5 385 C-602.38092989 382.15475772 -599.25244609 379.3280042 -596.0625 376.5625 C-592.65311482 373.60116544 -589.32203624 370.55849695 -586 367.5 C-582.07388932 363.88535023 -578.11327327 360.32073233 -574.078125 356.828125 C-570.47220304 353.65599816 -566.95044054 350.39018007 -563.41796875 347.13671875 C-559.41902572 343.60291934 -557.36280437 342.75009992 -552.09863281 342.75708008 C-550.24104591 342.75252556 -550.24104591 342.75252556 -548.34593201 342.74787903 C-546.96499499 342.75483343 -545.58405932 342.76206067 -544.203125 342.76953125 C-542.74182663 342.77039154 -541.28052761 342.7704669 -539.81922913 342.76982117 C-535.80733296 342.77099021 -531.79558118 342.78554388 -527.78372574 342.80276489 C-524.3862006 342.8158189 -520.98867796 342.82134075 -517.59113407 342.82720375 C-483.9574641 342.88941475 -450.32461981 343.24895012 -416.69388103 343.68076992 C-412.00086855 343.73990506 -407.30812656 343.78976091 -402.61482239 343.81846619 C-394.11587092 343.87504686 -385.63590117 343.98614364 -377.14395428 344.35632324 C-373.28443199 344.51710166 -369.42426793 344.62855796 -365.56287193 344.73356628 C-363.74518481 344.79570596 -361.92810851 344.88069704 -360.11268044 344.99055481 C-350.8149608 345.81727685 -350.8149608 345.81727685 -342.28169823 342.83564568 C-336.62288025 337.55799783 -332.98944486 330.37739577 -330.36328125 323.19140625 C-327.51710387 315.88678885 -323.91653786 309.47427589 -319.70193481 302.88293457 C-317.88639517 300.02470338 -316.13728768 297.12643361 -314.3828125 294.23046875 C-314.02782181 293.64697662 -313.67283112 293.0634845 -313.30708313 292.46231079 C-308.97983296 285.34291217 -304.74282475 278.16989927 -300.5 271 C-294.55968737 260.96290451 -288.57145829 250.95832312 -282.5 241 C-275.56398669 229.61976422 -268.73763605 218.17743052 -261.9453125 206.7109375 C-256.5614005 197.62279883 -251.14273366 188.55641491 -245.69824219 179.50439453 C-241.04984425 171.76822079 -236.44254385 164.00828817 -231.84277344 156.24316406 C-225.11414179 144.88488851 -218.33089966 133.56376213 -211.45855713 122.2918396 C-205.32500061 112.22803775 -199.29600736 102.10471602 -193.29400635 91.96200562 C-187.37579943 81.96353398 -181.38231124 72.01465654 -175.32827759 62.09793091 C-170.97635406 54.96474591 -166.67591609 47.80535772 -162.48025513 40.5789032 C-160.67049381 37.46221495 -158.84398389 34.35949103 -156.96582031 31.28344727 C-153.74888526 25.98105991 -150.81715224 20.88622484 -148.77734375 14.98828125 C-146.63390272 9.32623667 -144.44200687 5.01255775 -139 2 C-128.60843676 -0.55661966 -117.59767853 0.36779455 -106.99291992 0.73048401 C-96.89147764 1.05369646 -86.81744393 0.95316244 -76.71484375 0.78515625 C-75.44524402 0.76443054 -75.44524402 0.76443054 -74.1499958 0.74328613 C-70.69549329 0.68648492 -67.24101373 0.62853839 -63.78656483 0.56856155 C-54.58724192 0.40934819 -45.38754781 0.29174113 -36.1875 0.18359375 C-35.02728238 0.16969604 -35.02728238 0.16969604 -33.84362602 0.15551758 C-22.56221561 0.02154338 -11.28224278 -0.06077131 0 0 Z " fill="#D73D3D" transform="translate(698,2)"/>
<path d="M0 0 C3 1 3 1 4.73901367 4.12231445 C5.39291677 5.53095303 6.03499223 6.94511602 6.66796875 8.36328125 C7.02013962 9.13062088 7.37231049 9.89796051 7.7351532 10.68855286 C8.89606034 13.22538398 10.04170125 15.76881375 11.1875 18.3125 C11.98827323 20.0685716 12.78987733 21.82426454 13.59228516 23.57958984 C17.65964752 32.50052525 21.65455998 41.452727 25.60546875 50.42578125 C25.96885849 51.24965836 26.33224823 52.07353546 26.70664978 52.92237854 C28.44021227 56.855104 30.16466562 60.7913348 31.87182617 64.7355957 C32.49509371 66.15974949 33.11853777 67.58382604 33.7421875 69.0078125 C34.01439621 69.6457222 34.28660492 70.2836319 34.56706238 70.94087219 C36.48694207 75.29755482 38.58969595 79.79484797 43 82 C44.64142541 82.14640501 46.2898141 82.22096589 47.9375 82.25 C48.81277344 82.27578125 49.68804688 82.3015625 50.58984375 82.328125 C52.98736163 82.18206813 52.98736163 82.18206813 54.62736511 80.90614319 C56.69191916 78.03914945 56.37408021 75.6763888 56.37231445 72.17358398 C56.37596512 71.48385498 56.37961578 70.79412598 56.38337708 70.08349609 C56.39148195 67.80411138 56.37787512 65.52543764 56.36328125 63.24609375 C56.36276269 61.66333517 56.36328023 60.08057594 56.36479187 58.49781799 C56.36470215 55.18147156 56.35427303 51.86536826 56.33618164 48.54907227 C56.31347584 44.29280379 56.31295371 40.03689005 56.31969929 35.78057766 C56.32303625 32.51297335 56.31641468 29.24545031 56.30657005 25.9778614 C56.30271442 24.40813688 56.30157134 22.83840331 56.3031559 21.26867485 C56.30352567 19.07794755 56.29093245 16.88767991 56.2746582 14.69702148 C56.27005081 13.44920395 56.26544342 12.20138641 56.26069641 10.91575623 C56.30301532 7.87546439 56.30301532 7.87546439 54 6 C52.01178687 5.60235737 50.01055661 5.26224651 48 5 C48 4.01 48 3.02 48 2 C48.66319244 1.98969254 49.32638489 1.97938507 50.00967407 1.96876526 C56.92044482 1.86047367 63.83109114 1.74589447 70.74169922 1.62768555 C73.3197977 1.58440928 75.8979235 1.54272909 78.47607422 1.50268555 C82.18465399 1.44480598 85.89309721 1.38116231 89.6015625 1.31640625 C90.75177887 1.29969376 91.90199524 1.28298126 93.08706665 1.26576233 C94.16773407 1.24581711 95.24840149 1.22587189 96.36181641 1.20532227 C97.30779694 1.18977798 98.25377747 1.1742337 99.22842407 1.15821838 C102.17286772 0.99013166 105.09089009 0.48485165 108 0 C108 6.93 108 13.86 108 21 C107.34 21 106.68 21 106 21 C105.7525 19.741875 105.505 18.48375 105.25 17.1875 C104.54017885 14.35821288 104.19201453 13.19841501 102.125 11.0625 C98.55238689 9.27619345 95.19682532 8.86139601 91.234375 8.68359375 C90.43225586 8.64548584 89.63013672 8.60737793 88.80371094 8.56811523 C87.79598633 8.52501221 86.78826172 8.48190918 85.75 8.4375 C82.5325 8.293125 79.315 8.14875 76 8 C76 19.22 76 30.44 76 42 C87.81964849 42.05470639 87.81964849 42.05470639 98 38 C99.4470725 35.33738661 100.17666847 32.95430726 101 30 C101.66 30 102.32 30 103 30 C103 39.57 103 49.14 103 59 C102.34 59 101.68 59 101 59 C100.67128906 58.06027344 100.67128906 58.06027344 100.3359375 57.1015625 C100.01882813 56.28429687 99.70171875 55.46703125 99.375 54.625 C99.07335937 53.81289063 98.77171875 53.00078125 98.4609375 52.1640625 C96.40028771 49.11165613 94.53445646 48.93930781 91 48 C88.35240178 47.71651979 85.77718557 47.49835747 83.125 47.375 C82.43664062 47.33632813 81.74828125 47.29765625 81.0390625 47.2578125 C79.35976754 47.16451834 77.67992233 47.08121762 76 47 C76.06896613 51.34219879 76.15697379 55.68347274 76.26245117 60.02490234 C76.29565355 61.50103138 76.32370017 62.97728594 76.34643555 64.45361328 C76.38006951 66.57899332 76.43238519 68.70322804 76.48828125 70.828125 C76.51446533 72.1059082 76.54064941 73.38369141 76.56762695 74.70019531 C77.01980428 78.15114324 77.53524284 79.59151919 80 82 C82.59855733 82.8042208 82.59855733 82.8042208 85 83 C85 83.99 85 84.98 85 86 C59.98021352 86.14213303 35.00745711 85.79128199 10 85 C10 84.34 10 83.68 10 83 C12.475 82.505 12.475 82.505 15 82 C14.49328469 74.56817549 12.15404163 70.56969992 9 63 C0.42 63 -8.16 63 -17 63 C-18.5159375 66.58875 -18.5159375 66.58875 -20.0625 70.25 C-20.38484619 70.99668945 -20.70719238 71.74337891 -21.03930664 72.51269531 C-22.53904192 76.16311481 -23.21752997 78.25708888 -22 82 C-20.68 82.33 -19.36 82.66 -18 83 C-18 83.66 -18 84.32 -18 85 C-26.58 85 -35.16 85 -44 85 C-44 84.34 -44 83.68 -44 83 C-42.9275 82.773125 -41.855 82.54625 -40.75 82.3125 C-35.43674026 80.45285909 -33.79741968 77.57755393 -31.29931641 72.63549805 C-30.72573751 71.34762298 -30.16025101 70.05612289 -29.6015625 68.76171875 C-29.28977554 68.05596207 -28.97798859 67.35020538 -28.65675354 66.62306213 C-27.63893325 64.31431254 -26.63185006 62.00105218 -25.625 59.6875 C-24.91899818 58.07947914 -24.21236594 56.47173493 -23.50512695 54.86425781 C-22.05105193 51.55573266 -20.60154774 48.24526098 -19.15576172 44.93310547 C-17.09470067 40.21252108 -15.01926396 35.49836527 -12.94140625 30.78515625 C-11.99215166 28.62852718 -11.04344068 26.47166046 -10.09515381 24.31460571 C-9.49595457 22.95162992 -8.89639319 21.58881327 -8.29644775 20.22616577 C-5.35771582 13.54460372 -2.46158111 6.87515285 0 0 Z M-4 30 C-5.56884528 33.6835243 -7.13536632 37.36802712 -8.69970703 41.0534668 C-9.23259149 42.3079724 -9.76611872 43.56220516 -10.30029297 44.81616211 C-11.0664555 46.61500938 -11.830142 48.4149106 -12.59375 50.21484375 C-13.05458984 51.29886475 -13.51542969 52.38288574 -13.99023438 53.49975586 C-15.06241325 55.70513072 -15.06241325 55.70513072 -15 57 C-7.74 57 -0.48 57 7 57 C4.70434869 50.03553219 4.70434869 50.03553219 2.17578125 43.18359375 C1.86962891 42.40048828 1.56347656 41.61738281 1.24804688 40.81054688 C0.78495117 39.63588867 0.78495117 39.63588867 0.3125 38.4375 C-0.00783203 37.61958984 -0.32816406 36.80167969 -0.65820312 35.95898438 C-1.43678254 33.97186378 -2.21809845 31.98581573 -3 30 C-3.33 30 -3.66 30 -4 30 Z " fill="#000000" transform="translate(731,559)"/>
<path d="M0 0 C3.45406993 1.15135664 3.67662803 1.64740181 5.42578125 4.6640625 C5.8856543 5.44515381 6.34552734 6.22624512 6.81933594 7.03100586 C7.31208008 7.88702393 7.80482422 8.74304199 8.3125 9.625 C9.38579625 11.45236506 10.46005424 13.2791655 11.53515625 15.10546875 C12.0986377 16.06759277 12.66211914 17.0297168 13.24267578 18.02099609 C16.19407952 23.02419537 19.22293073 27.97984138 22.25 32.9375 C22.83966553 33.90518311 23.42933105 34.87286621 24.03686523 35.86987305 C28.33781546 42.92565656 32.65567805 49.97083311 37 57 C39.73597411 53.70957169 42.03659346 50.42477126 44.14453125 46.703125 C45.0257666 45.15806274 45.0257666 45.15806274 45.92480469 43.58178711 C46.54774414 42.48229736 47.17068359 41.38280762 47.8125 40.25 C49.14563666 37.92229844 50.479946 35.59532103 51.81640625 33.26953125 C52.15791718 32.67471451 52.4994281 32.07989777 52.85128784 31.46705627 C56.60733176 24.93123674 60.40857327 18.42347957 64.25 11.9375 C64.88139893 10.8556543 65.51279785 9.77380859 66.16333008 8.65917969 C66.7539624 7.66692383 67.34459473 6.67466797 67.953125 5.65234375 C68.47036133 4.77570068 68.98759766 3.89905762 69.52050781 2.99584961 C71 1 71 1 74 0 C75.58077714 8.05077092 76.72833051 16.12540815 77.75596237 24.26370049 C78.22019117 27.92128407 78.70151982 31.57663934 79.1796875 35.23242188 C79.78332812 39.85522998 80.38184813 44.47853981 80.96289062 49.10424805 C81.43675945 52.873122 81.92717399 56.63951702 82.42873001 60.40480232 C82.61580256 61.8325293 82.7967822 63.26106878 82.97144699 64.69036674 C83.21570272 66.68286028 83.48308586 68.67247737 83.75146484 70.66186523 C83.89643402 71.79228745 84.0414032 72.92270966 84.19076538 74.08738708 C85.13323026 77.47952495 86.25778737 78.83809601 89 81 C91.64184541 81.79681318 91.64184541 81.79681318 94 82 C94 82.66 94 83.32 94 84 C82.12 84 70.24 84 58 84 C58 83.34 58 82.68 58 82 C59.65 81.67 61.3 81.34 63 81 C64.22222959 76.80753733 63.75949709 73.04931448 63.2578125 68.76953125 C63.16998505 67.9785051 63.08215759 67.18747894 62.9916687 66.3724823 C62.80498585 64.70537417 62.61481401 63.03865352 62.42138672 61.37231445 C62.12497385 58.81227417 61.84095433 56.25107739 61.55859375 53.68945312 C61.37573028 52.07022986 61.1921611 50.4510861 61.0078125 48.83203125 C60.87960617 47.67741142 60.87960617 47.67741142 60.74880981 46.49946594 C60.6120442 42.94839193 60.6120442 42.94839193 59 40 C56.84433833 43.72831396 54.69419936 47.45974733 52.54858398 51.19384766 C51.82181233 52.45703461 51.09367677 53.71943807 50.36401367 54.98095703 C40.700316 70.24990796 40.700316 70.24990796 35 87 C34.01 87 33.02 87 32 87 C30.38110352 84.83886719 30.38110352 84.83886719 28.62890625 81.796875 C27.97728516 80.67966064 27.32566406 79.56244629 26.65429688 78.41137695 C25.95689952 77.19099324 25.25963655 75.97053272 24.5625 74.75 C23.84950001 73.52038509 23.1353003 72.2914651 22.41992188 71.06323242 C20.97258631 68.5769145 19.52997873 66.0879448 18.09033203 63.59716797 C15.11822992 58.46755002 12.06162757 53.38903683 9 48.3125 C8.02073982 46.68364997 7.04156297 45.05474983 6.0625 43.42578125 C5.381875 42.29527344 4.70125 41.16476562 4 40 C1.57461641 53.15899606 -0.43246669 66.59353248 0 80 C1.65 80.66 3.3 81.32 5 82 C5 82.66 5 83.32 5 84 C-3.58 84 -12.16 84 -21 84 C-21 83.34 -21 82.68 -21 82 C-18.98177083 81.57682292 -16.96354167 81.15364583 -14.9453125 80.73046875 C-12.62953451 80.07691162 -12.62953451 80.07691162 -11 77 C-10.53655528 74.55268081 -10.17033024 72.16642954 -9.87084961 69.69873047 C-9.77462814 68.95862732 -9.67840668 68.21852417 -9.57926941 67.45599365 C-9.26304999 65.0105951 -8.95783929 62.56394678 -8.65234375 60.1171875 C-8.43420607 58.41982766 -8.2152467 56.72257324 -7.99549866 55.02542114 C-7.41877288 50.55830918 -6.85078583 46.0901342 -6.28533936 41.62158203 C-5.37852125 34.46123552 -4.46174887 27.30218048 -3.53882027 20.1438942 C-3.2174694 17.63766503 -2.90181835 15.13076253 -2.58665466 12.62374878 C-2.39122468 11.09663336 -2.19560237 9.56954253 -1.99975586 8.04248047 C-1.86960083 6.98895889 -1.86960083 6.98895889 -1.73681641 5.91415405 C-1.11366589 1.11366589 -1.11366589 1.11366589 0 0 Z " fill="#000000" transform="translate(180,560)"/>
<path d="M0 0 C3.39427951 0.73982366 4.8758378 1.55491179 7.25 4.125 C9.61731335 6.60218865 12.00655518 8.91534192 14.625 11.125 C18.4394448 14.40512568 21.96563156 17.92525032 25.5 21.5 C29.4851274 25.53034871 33.50853874 29.3902094 37.8359375 33.0546875 C41.46064939 36.31300252 44.85114952 39.81083474 48.2578125 43.29492188 C48.78375 43.82923828 49.3096875 44.36355469 49.8515625 44.9140625 C50.31385254 45.3879541 50.77614258 45.8618457 51.25244141 46.35009766 C53.73424522 48.69321447 56.36469371 50.83107086 59 53 C59.0505939 46.48554795 59.08568856 39.97114632 59.10986328 33.45654297 C59.11993825 31.23907579 59.13359859 29.02162195 59.15087891 26.80419922 C59.17506163 23.62203688 59.18646797 20.44004976 59.1953125 17.2578125 C59.20563507 16.26194122 59.21595764 15.26606995 59.22659302 14.24002075 C59.22674408 13.31921722 59.22689514 12.3984137 59.22705078 11.44970703 C59.231492 10.6369632 59.23593323 9.82421936 59.24050903 8.98684692 C59.1792112 6.76787325 59.1792112 6.76787325 57 5 C55.01178687 4.60235737 53.01055661 4.26224651 51 4 C51 3.01 51 2.02 51 1 C63.21 1 75.42 1 88 1 C87.67 1.99 87.34 2.98 87 4 C84.69 4.33 82.38 4.66 80 5 C78.81127862 8.56616414 78.86791304 11.79091341 78.88647461 15.50073242 C78.88632858 16.26194901 78.88618256 17.02316559 78.8860321 17.80744934 C78.88672876 20.3234848 78.89450962 22.83944622 78.90234375 25.35546875 C78.90420881 27.09995992 78.9056323 28.8444516 78.90663147 30.58894348 C78.91044974 35.18058722 78.92027416 39.77219933 78.93133545 44.36383057 C78.94156439 49.04918998 78.94613227 53.73455451 78.95117188 58.41992188 C78.96189702 67.61329515 78.97896519 76.80664494 79 86 C75.2411093 84.23578597 72.44667157 81.88396496 69.4375 79.0625 C68.91446289 78.57813477 68.39142578 78.09376953 67.85253906 77.59472656 C63.28781908 73.33780227 58.89990406 68.91873321 54.51171875 64.48046875 C52.41905128 62.41383757 50.29998293 60.46782052 48.0625 58.5625 C43.96125068 55.06759555 40.22281654 51.25064088 36.43969727 47.42016602 C32.995748 43.94989776 29.46069692 40.6511132 25.71875 37.5 C23.71832262 35.75417247 21.87022143 33.8837318 20 32 C19.92393829 38.335371 19.87139543 44.67062424 19.83520508 51.00634766 C19.82011818 53.16166586 19.79964611 55.31695336 19.77368164 57.47216797 C19.73729456 60.57006404 19.72027261 63.66755423 19.70703125 66.765625 C19.69154739 67.72929993 19.67606354 68.69297485 19.66011047 69.68585205 C19.65988388 70.58648376 19.65965729 71.48711548 19.65942383 72.41503906 C19.65276199 73.20557678 19.64610016 73.9961145 19.63923645 74.81060791 C20.09955241 77.60416097 21.05782829 78.96247263 23 81 C26.10197397 81.80946422 26.10197397 81.80946422 29 82 C29 82.99 29 83.98 29 85 C16.79 85 4.58 85 -8 85 C-8 84.01 -8 83.02 -8 82 C-6.865625 81.690625 -5.73125 81.38125 -4.5625 81.0625 C-1.21224901 80.37075469 -1.21224901 80.37075469 0 79 C0.09500548 76.53555943 0.12557985 74.09925374 0.11352539 71.63452148 C0.11367142 70.86384338 0.11381744 70.09316528 0.1139679 69.2991333 C0.1132686 66.73975861 0.10547545 64.1804558 0.09765625 61.62109375 C0.09579213 59.85132385 0.0943682 58.08155344 0.09336853 56.31178284 C0.08954288 51.64448634 0.0797122 46.97722077 0.06866455 42.30993652 C0.05845144 37.55102965 0.05387113 32.79211779 0.04882812 28.03320312 C0.03808997 18.68878847 0.02101299 9.3443968 0 0 Z " fill="#000000" transform="translate(955,560)"/>
<path d="M0 0 C6.06484815 -0.04980923 12.12957458 -0.08591175 18.19458008 -0.10986328 C20.25352048 -0.11985892 22.31244691 -0.13345992 24.37133789 -0.15087891 C27.3478543 -0.17541262 30.32418141 -0.18654775 33.30078125 -0.1953125 C34.2064534 -0.20563507 35.11212555 -0.21595764 36.04524231 -0.22659302 C45.87157767 -0.22827966 55.17076531 0.59594515 63 7 C67.54578808 11.66541408 69.07362454 16.3307027 69.375 22.75 C69.21186478 29.12186965 67.60155211 35.01622933 63.3515625 39.890625 C60.19201348 42.7328394 57.11095603 44.75425575 53 46 C53.47308594 46.34289062 53.94617188 46.68578125 54.43359375 47.0390625 C59.70595048 51.21172689 63.13907961 55.98916155 66.63354492 61.64819336 C73.90926743 73.89400558 73.90926743 73.89400558 85.8125 80.6875 C86.534375 80.790625 87.25625 80.89375 88 81 C88 81.66 88 82.32 88 83 C84.20860154 83.11771717 80.41768265 83.18775198 76.625 83.25 C75.56410156 83.28351563 74.50320313 83.31703125 73.41015625 83.3515625 C65.69773652 83.44619342 58.46867541 82.56372971 52.24829102 77.60302734 C46.9333826 72.36654336 44.09896719 64.49646134 40.90332031 57.86621094 C37.93200504 51.7276342 35.65548664 47.03963332 30 43 C30 42.34 30 41.68 30 41 C30.58007812 40.97421875 31.16015625 40.9484375 31.7578125 40.921875 C37.18821575 40.5275883 40.82284159 39.7793338 45 36 C48.48943601 30.30058785 48.85805541 24.58156785 48 18 C46.85338134 14.36610086 45.64584046 11.05107814 42.34277344 8.94165039 C39.28851955 7.71402875 36.52968267 7.57178096 33.25 7.375 C32.07953125 7.30023437 30.9090625 7.22546875 29.703125 7.1484375 C28.36507813 7.07496094 28.36507813 7.07496094 27 7 C27.06125714 15.77996182 27.13839614 24.55959957 27.23571491 33.33923626 C27.28040899 37.41616012 27.31966707 41.49298427 27.34643555 45.57006836 C27.37247839 49.50599859 27.41288729 53.44154495 27.46318626 57.37723732 C27.47984843 58.8774519 27.49136678 60.37773286 27.49761391 61.87802696 C27.50726249 63.98248746 27.53532826 66.08596738 27.56762695 68.19018555 C27.57873001 69.38709518 27.58983307 70.58400482 27.60127258 71.81718445 C28.03905289 75.31173715 28.857133 77.22479982 31 80 C33.59122743 80.88658466 33.59122743 80.88658466 36 81 C36 81.66 36 82.32 36 83 C24.12 83 12.24 83 0 83 C0 82.34 0 81.68 0 81 C1.423125 80.5978125 1.423125 80.5978125 2.875 80.1875 C6.25267273 79.25013412 6.25267273 79.25013412 8 76 C8.31230399 72.97417654 8.31230399 72.97417654 8.2746582 69.48071289 C8.27976913 68.82345718 8.28488007 68.16620148 8.29014587 67.48902893 C8.30404355 65.31681202 8.30308502 63.14491233 8.30078125 60.97265625 C8.30466816 59.46194847 8.30900282 57.95124177 8.31376648 56.4405365 C8.32122909 53.27387958 8.3209372 50.10733414 8.31567383 46.94067383 C8.30987969 42.88406721 8.32680823 38.82791726 8.3500185 34.77138615 C8.36475582 31.65125361 8.36562756 28.53123104 8.36250877 25.41106987 C8.36302201 23.91555311 8.36826024 22.4200302 8.37832069 20.9245472 C8.39066801 18.83229088 8.38390472 16.74092389 8.37231445 14.64868164 C8.37294388 13.45860001 8.3735733 12.26851837 8.3742218 11.04237366 C7.96554083 7.7198515 7.35756902 6.33840872 5 4 C2.40144267 3.1957792 2.40144267 3.1957792 0 3 C0 2.01 0 1.02 0 0 Z " fill="#000000" transform="translate(430,561)"/>
<path d="M0 0 C5.33445924 -0.04994812 10.66877825 -0.08597541 16.00341797 -0.10986328 C17.81301245 -0.11983616 19.62259118 -0.13341932 21.43212891 -0.15087891 C52.23844624 -0.44037995 52.23844624 -0.44037995 60.5625 7.48828125 C65.19902161 12.79657161 65.29245591 17.28865984 65.2109375 24.0546875 C64.89104257 28.52136862 63.71174205 31.36665835 60.46484375 34.46484375 C59.02089363 35.69715106 57.51459793 36.85563712 56 38 C56.67546875 38.36351562 57.3509375 38.72703125 58.046875 39.1015625 C64.98799526 43.01346554 68.61707924 46.04879784 71.3125 53.75 C72.61937957 59.8958661 72.16728402 65.7086647 69.3125 71.3125 C63.25245602 78.35525381 56.46136855 82.22690385 47.08926392 83.3482666 C44.04749266 83.45821816 41.0313728 83.45121344 37.98828125 83.390625 C36.89404343 83.38496521 35.7998056 83.37930542 34.67240906 83.37347412 C31.21863808 83.35129843 27.76595101 83.30113722 24.3125 83.25 C21.95379115 83.22991072 19.59506585 83.21166423 17.23632812 83.1953125 C11.49052311 83.15149566 5.74533902 83.0847751 0 83 C0 82.34 0 81.68 0 81 C1.134375 80.71125 2.26875 80.4225 3.4375 80.125 C4.613125 79.75375 5.78875 79.3825 7 79 C8.45503793 76.08992414 8.1353584 73.5375034 8.14526367 70.28710938 C8.14862228 69.5975264 8.1519809 68.90794342 8.15544128 68.19746399 C8.16495796 65.91287446 8.16689462 63.62835813 8.16796875 61.34375 C8.17118037 59.75956186 8.17454437 58.17537403 8.17805481 56.59118652 C8.18404754 53.26895459 8.18589452 49.94674868 8.18530273 46.62451172 C8.185201 42.36040259 8.1988644 38.09645955 8.21607494 33.83238983 C8.22717341 30.56051868 8.22922262 27.28868798 8.22869301 24.01679993 C8.22987595 22.44427415 8.23431523 20.87174743 8.24202538 19.29924011 C8.25178389 17.10367054 8.2489641 14.90846562 8.24291992 12.71289062 C8.24505745 10.83664001 8.24505745 10.83664001 8.24723816 8.92248535 C8.30591028 5.87592187 8.30591028 5.87592187 6 4 C4.01178687 3.60235737 2.01055661 3.26224651 0 3 C0 2.01 0 1.02 0 0 Z M28 6 C28 29.43 28 52.86 28 77 C37.90663894 77.31135611 37.90663894 77.31135611 46 73 C50.45621986 67.87660598 50.68009074 61.67127514 50.4375 55.12890625 C49.78432035 50.45750535 48.45658211 47.24902752 45 44 C40.6602192 41.24545559 36.22705701 39.32554103 31 40 C31 39.34 31 38.68 31 38 C32.5778125 37.87625 32.5778125 37.87625 34.1875 37.75 C38.34583134 36.9319676 40.03734506 35.96265494 43 33 C45.21510557 29.56116477 45.29848163 26.60446255 45.3125 22.5625 C45.32925781 21.45003906 45.34601563 20.33757813 45.36328125 19.19140625 C44.84090071 14.60232131 42.99371346 12.05216719 39.875 8.75 C36.2683409 6.2772271 36.2683409 6.2772271 28 6 Z " fill="#000000" transform="translate(277,561)"/>
<path d="M0 0 C7.21079206 5.59087258 12.14198085 14.05770573 14 23 C15.10274296 37.32349031 15.07000566 50.65198554 5.62890625 62.22265625 C0.7808415 67.51251107 -4.32779289 71.3192025 -11 74 C-11.7425 74.30035156 -12.485 74.60070312 -13.25 74.91015625 C-26.50395998 79.36265843 -44.21537329 78.80260944 -56.76953125 72.640625 C-61.47386973 69.96817503 -65.42269422 67.10338016 -69 63 C-69.680625 62.236875 -70.36125 61.47375 -71.0625 60.6875 C-78.16002583 50.84254482 -79.9867772 39.99313832 -79 28 C-77.20143158 17.41864129 -73.67709031 7.29927803 -65.03125 0.4375 C-46.43148727 -12.66092446 -18.58460363 -13.63948301 0 0 Z M-52.23828125 7.39453125 C-59.8725731 18.68515801 -60.05276072 33.59389204 -57.84765625 46.60546875 C-55.52497924 55.90688038 -51.17946009 63.73614707 -43 69 C-36.62298523 72.06964893 -29.94603343 71.88381003 -23.25 69.875 C-14.15445899 64.6275725 -9.9025815 58.34861405 -6.88671875 48.28515625 C-3.87097568 35.52773991 -4.73922544 19.95052329 -11.42578125 8.57421875 C-15.2961384 3.10371395 -19.5874721 -0.81937092 -26 -3 C-37.60602628 -4.37671484 -44.81540514 -1.54500324 -52.23828125 7.39453125 Z " fill="#000000" transform="translate(928,569)"/>
<path d="M0 0 C19.14 0 38.28 0 58 0 C58 19.14 58 38.28 58 58 C38.86 58 19.72 58 0 58 C0 38.86 0 19.72 0 0 Z " fill="#3F4243" transform="translate(762,397)"/>
<path d="M0 0 C19.14 0 38.28 0 58 0 C58 19.14 58 38.28 58 58 C38.86 58 19.72 58 0 58 C0 38.86 0 19.72 0 0 Z " fill="#3D4142" transform="translate(848,396)"/>
<path d="M0 0 C19.14 0 38.28 0 58 0 C58 19.14 58 38.28 58 58 C38.86 58 19.72 58 0 58 C0 38.86 0 19.72 0 0 Z " fill="#3F4243" transform="translate(762,312)"/>
<path d="M0 0 C19.14 0 38.28 0 58 0 C58 19.14 58 38.28 58 58 C38.86 58 19.72 58 0 58 C0 38.86 0 19.72 0 0 Z " fill="#3D4142" transform="translate(848,311)"/>
<path d="M0 0 C5.92243251 -0.04982309 11.8447402 -0.08591813 17.76733398 -0.10986328 C19.7777723 -0.11985664 21.78819633 -0.13345588 23.79858398 -0.15087891 C53.78198384 -0.40402904 53.78198384 -0.40402904 63 7 C68.84653564 14.16130682 69.64309616 20.95071825 69 30 C67.67982837 35.94077233 65.06344408 40.9711149 59.91796875 44.37890625 C53.05586065 48.37326768 46.61567492 50.25407519 38.62109375 48.46875 C32.37286543 46.62336636 32.37286543 46.62336636 30.73828125 43.890625 C30.49464844 43.26671875 30.25101563 42.6428125 30 42 C30.59167969 41.89042969 31.18335938 41.78085937 31.79296875 41.66796875 C39.39776625 40.26476534 39.39776625 40.26476534 45.1875 35.44921875 C48.6614393 29.62313305 48.88223459 23.62130706 48 17 C46.72327138 12.70898309 44.76242171 10.45745302 40.875 8.125 C37.86488528 7.05106402 34.93276021 6.71642334 31.7578125 6.4296875 C30.86465332 6.34702637 29.97149414 6.26436523 29.05126953 6.17919922 C28.03589111 6.09049561 28.03589111 6.09049561 27 6 C27.0612541 14.91034252 27.13839096 23.82036562 27.23571491 32.73038769 C27.28041111 36.86784601 27.31966875 41.00520603 27.34643555 45.14282227 C27.37247624 49.13710423 27.41288368 53.13100779 27.46318626 57.12505531 C27.47984988 58.64759928 27.49136733 60.1702087 27.49761391 61.69283104 C27.50726088 63.82841886 27.53532493 65.96303975 27.56762695 68.09838867 C27.57873001 69.3130632 27.58983307 70.52773773 27.60127258 71.77922058 C28.03666578 75.29617321 28.84040333 77.21068413 31 80 C33.59122743 80.88658466 33.59122743 80.88658466 36 81 C36 81.99 36 82.98 36 84 C24.12 84 12.24 84 0 84 C0 83.01 0 82.02 0 81 C1.423125 80.5978125 1.423125 80.5978125 2.875 80.1875 C6.25267273 79.25013412 6.25267273 79.25013412 8 76 C8.29868939 72.92595691 8.29868939 72.92595691 8.24291992 69.37304688 C8.24481827 68.7044313 8.24671661 68.03581573 8.24867249 67.34693909 C8.2523763 65.13742333 8.24168155 62.92823653 8.23046875 60.71875 C8.22927656 59.18322793 8.22882387 57.64770513 8.2290802 56.11218262 C8.22751599 52.89424066 8.21923137 49.67641005 8.20581055 46.45849609 C8.18882083 42.33243563 8.18499627 38.20649754 8.18575573 34.08040619 C8.18548387 30.90971711 8.18000011 27.73905481 8.17275429 24.56837463 C8.16957083 23.04692284 8.16760096 21.52546801 8.16686058 20.00401306 C8.1646936 17.87827378 8.15594162 15.75266449 8.14526367 13.62695312 C8.14145187 12.41688599 8.13764008 11.20681885 8.13371277 9.96008301 C8.1323857 6.94199811 8.1323857 6.94199811 7 4 C4.69 3.67 2.38 3.34 0 3 C0 2.01 0 1.02 0 0 Z " fill="#000000" transform="translate(547,561)"/>
<path d="M0 0 C11.55 0 23.1 0 35 0 C35 0.99 35 1.98 35 3 C32.69 3.66 30.38 4.32 28 5 C27.89821541 12.81035171 27.82837286 20.62053106 27.78027344 28.43139648 C27.76247947 31.08633686 27.7329612 33.74040532 27.69824219 36.39526367 C27.64948374 40.22065084 27.62697503 44.0454515 27.609375 47.87109375 C27.58872986 49.04957382 27.56808472 50.22805389 27.54681396 51.44224548 C27.54451772 59.9582767 28.92490807 66.17691274 34.3125 72.875 C39.69231614 77.12880811 44.68350786 78.59675122 51.4453125 78.33984375 C57.70618635 77.50697521 62.39965313 75.21071134 66.4375 70.3125 C71.7268344 63.27512346 71.29831833 53.67002144 71.265625 45.2890625 C71.26753845 44.1991098 71.2694519 43.1091571 71.27142334 41.98617554 C71.27277683 39.69862637 71.26913918 37.41106931 71.26074219 35.12353516 C71.24996848 31.61473557 71.26069788 28.10644073 71.2734375 24.59765625 C71.27211698 22.36979054 71.2695568 20.14192514 71.265625 17.9140625 C71.26967346 16.86409088 71.27372192 15.81411926 71.27789307 14.73233032 C71.27158875 13.76056854 71.26528442 12.78880676 71.25878906 11.78759766 C71.25719788 10.93316071 71.25560669 10.07872375 71.25396729 9.19839478 C71.13563077 6.70993508 71.13563077 6.70993508 69 4 C66.43717258 3.27034634 66.43717258 3.27034634 64 3 C64 2.01 64 1.02 64 0 C72.25 0 80.5 0 89 0 C89 0.99 89 1.98 89 3 C88.030625 3.309375 87.06125 3.61875 86.0625 3.9375 C83.15934208 4.69523342 83.15934208 4.69523342 82 6 C81.89270776 7.63991312 81.85376425 9.28435526 81.84228516 10.92773438 C81.82689194 12.50572815 81.82689194 12.50572815 81.81118774 14.11560059 C81.80388641 15.26338989 81.79658508 16.4111792 81.7890625 17.59375 C81.76097465 20.01042322 81.73231007 22.42708979 81.703125 24.84375 C81.66198321 28.66405924 81.62510917 32.48424696 81.59863281 36.3046875 C81.57089929 39.98463892 81.52500307 43.66402047 81.4765625 47.34375 C81.47330963 48.47534546 81.47005676 49.60694092 81.46670532 50.77282715 C81.31471375 60.6558829 79.60285021 69.29934442 72.43359375 76.59375 C62.74926437 85.43313789 51.6349622 85.55155523 39.16748047 85.13623047 C30.58039037 84.59651474 21.37798319 81.37798319 15.21484375 75.21484375 C8.40611775 66.80012833 7.55967474 57.91177492 7.55859375 47.37890625 C7.54538589 46.1977977 7.53217804 45.01668915 7.51856995 43.79978943 C7.47789309 40.05400141 7.45604554 36.30845816 7.4375 32.5625 C7.41373244 28.79162072 7.38571313 25.02097241 7.34571838 21.25022888 C7.32130439 18.90986715 7.30649229 16.56938206 7.30210876 14.22889709 C7.29192215 13.17697678 7.28173553 12.12505646 7.27124023 11.04125977 C7.26482765 9.64968407 7.26482765 9.64968407 7.25828552 8.22999573 C7.21032738 5.7962904 7.21032738 5.7962904 5 4 C2.42938689 3.35232207 2.42938689 3.35232207 0 3 C0 2.01 0 1.02 0 0 Z " fill="#000000" transform="translate(71,561)"/>
<path d="M0 0 C0 7.26 0 14.52 0 22 C-0.66 22 -1.32 22 -2 22 C-2.2475 20.7625 -2.495 19.525 -2.75 18.25 C-3.69820829 14.47719939 -4.78251605 12.36579703 -8 10 C-10.92695919 9.07821815 -13.70883491 8.82075741 -16.765625 8.68359375 C-17.56774414 8.64548584 -18.36986328 8.60737793 -19.19628906 8.56811523 C-20.20401367 8.52501221 -21.21173828 8.48190918 -22.25 8.4375 C-25.4675 8.293125 -28.685 8.14875 -32 8 C-32 19.22 -32 30.44 -32 42 C-20.18035151 42.05470639 -20.18035151 42.05470639 -10 38 C-8.5529275 35.33738661 -7.82333153 32.95430726 -7 30 C-6.34 30 -5.68 30 -5 30 C-5 39.57 -5 49.14 -5 59 C-5.66 59 -6.32 59 -7 59 C-7.21914063 58.37351562 -7.43828125 57.74703125 -7.6640625 57.1015625 C-7.98117187 56.28429687 -8.29828125 55.46703125 -8.625 54.625 C-8.92664063 53.81289063 -9.22828125 53.00078125 -9.5390625 52.1640625 C-11.17694942 49.26396699 -11.17694942 49.26396699 -17 48 C-21.95 47.67 -26.9 47.34 -32 47 C-32 57.56 -32 68.12 -32 79 C-27.05 78.87625 -27.05 78.87625 -22 78.75 C-20.97648437 78.73420898 -19.95296875 78.71841797 -18.8984375 78.70214844 C-11.65781417 78.43594905 -5.9683975 76.9683975 -0.75 71.75 C1.45126546 68.29086856 3.26794713 64.71285801 5 61 C6.485 61.495 6.485 61.495 8 62 C7.19170931 65.62595194 6.37765633 69.2505859 5.5625 72.875 C5.33240234 73.90753906 5.10230469 74.94007813 4.86523438 76.00390625 C4.64287109 76.99003906 4.42050781 77.97617187 4.19140625 78.9921875 C3.98717041 79.90339355 3.78293457 80.81459961 3.57250977 81.75341797 C3 84 3 84 2 86 C-18.46 86 -38.92 86 -60 86 C-60 85.01 -60 84.02 -60 83 C-58.865625 82.71125 -57.73125 82.4225 -56.5625 82.125 C-55.386875 81.75375 -54.21125 81.3825 -53 81 C-51.54496207 78.08992414 -51.8646416 75.5375034 -51.85473633 72.28710938 C-51.85137772 71.5975264 -51.8480191 70.90794342 -51.84455872 70.19746399 C-51.83504204 67.91287446 -51.83310538 65.62835813 -51.83203125 63.34375 C-51.82881963 61.75956186 -51.82545563 60.17537403 -51.82194519 58.59118652 C-51.81595246 55.26895459 -51.81410548 51.94674868 -51.81469727 48.62451172 C-51.814799 44.36040259 -51.8011356 40.09645955 -51.78392506 35.83238983 C-51.77282659 32.56051868 -51.77077738 29.28868798 -51.77130699 26.01679993 C-51.77012405 24.44427415 -51.76568477 22.87174743 -51.75797462 21.29924011 C-51.74821611 19.10367054 -51.7510359 16.90846562 -51.75708008 14.71289062 C-51.75494255 12.83664001 -51.75494255 12.83664001 -51.75276184 10.92248535 C-51.69408972 7.87592187 -51.69408972 7.87592187 -54 6 C-55.98821313 5.60235737 -57.98944339 5.26224651 -60 5 C-60 4.01 -60 3.02 -60 2 C-59.33458694 1.98969254 -58.66917389 1.97938507 -57.9835968 1.96876526 C-51.05675696 1.86056859 -44.13004372 1.74598124 -37.20336914 1.62768555 C-34.61843516 1.58437894 -32.03347336 1.54270083 -29.44848633 1.50268555 C-25.73249937 1.44487972 -22.01665187 1.38121457 -18.30078125 1.31640625 C-16.56771477 1.29133751 -16.56771477 1.29133751 -14.79963684 1.26576233 C-13.17852242 1.2358445 -13.17852242 1.2358445 -11.5246582 1.20532227 C-10.57645706 1.18977798 -9.62825592 1.1742337 -8.65132141 1.15821838 C-5.74746866 0.98493012 -2.87097587 0 0 0 Z " fill="#000000" transform="translate(416,559)"/>
<path d="M0 0 C0.8343457 -0.00193359 1.66869141 -0.00386719 2.52832031 -0.00585938 C3.40456055 -0.00134766 4.28080078 0.00316406 5.18359375 0.0078125 C6.0765918 0.00974609 6.96958984 0.01167969 7.88964844 0.01367188 C14.17316653 0.05475554 20.38311802 0.33160461 26.62109375 1.1328125 C26.73378818 7.2433549 26.51713743 13.08451764 25.62109375 19.1328125 C24.96109375 19.1328125 24.30109375 19.1328125 23.62109375 19.1328125 C23.37875 18.59011719 23.13640625 18.04742188 22.88671875 17.48828125 C20.32647089 11.9116597 20.32647089 11.9116597 15.62109375 8.1328125 C9.88381208 6.22038528 3.73819885 6.3899686 -1.94140625 8.3828125 C-4.53524198 10.24505354 -5.50890654 11.08781351 -6.37890625 14.1328125 C-6.96236101 17.09027742 -6.96236101 17.09027742 -6.37890625 20.1328125 C-3.04937706 23.91227807 0.57891867 26.6055314 4.8046875 29.3125 C5.99169887 30.08438572 7.17854266 30.85652918 8.36523438 31.62890625 C10.21010358 32.81963426 12.05707495 34.00684221 13.9074707 35.18896484 C31.62270505 46.53974108 31.62270505 46.53974108 33.62109375 55.1328125 C34.39946526 63.15711512 33.20333492 70.12588655 28.80859375 76.9453125 C21.11644362 84.63746263 12.31267781 86.42900195 1.80859375 86.5703125 C-6.287125 86.53746812 -15.52527933 85.85744359 -22.17578125 80.75390625 C-24.9112678 77.06810457 -24.62391786 72.03314648 -24.05859375 67.6484375 C-23.27883585 63.86104198 -22.5549525 61.39688187 -20.37890625 58.1328125 C-19.71890625 58.1328125 -19.05890625 58.1328125 -18.37890625 58.1328125 C-18.29253906 58.77347656 -18.20617187 59.41414062 -18.1171875 60.07421875 C-16.9237841 67.42076632 -14.93043612 72.53413211 -8.81640625 77.0078125 C-3.24138129 79.58090094 2.56455844 79.90030733 8.62109375 79.1328125 C12.30065515 77.56753876 15.79046203 75.79407595 17.62109375 72.1328125 C18.25417538 66.59090107 18.25417538 66.59090107 15.97265625 61.75634766 C13.38929827 58.87420845 10.83429775 57.06186317 7.5703125 54.98828125 C6.38465647 54.22087174 5.19911319 53.45328802 4.01367188 52.68554688 C2.16668786 51.5036628 0.31727465 50.32581351 -1.53491211 49.15209961 C-17.59992635 38.93242272 -17.59992635 38.93242272 -21.81640625 30.1328125 C-23.39403416 21.71879697 -22.15746497 14.5983533 -17.62890625 7.3203125 C-12.59253238 2.4238379 -7.00808328 0.0105828 0 0 Z " fill="#000000" transform="translate(30.37890625,559.8671875)"/>
<path d="M0 0 C12.21 0 24.42 0 37 0 C37 0.99 37 1.98 37 3 C36.05125 3.28875 35.1025 3.5775 34.125 3.875 C30.94788422 4.76825109 30.94788422 4.76825109 29 7 C28.66688124 10.03576169 28.66688124 10.03576169 28.68115234 13.65283203 C28.67110672 14.33587402 28.6610611 15.01891602 28.65071106 15.72265625 C28.6197763 17.98436629 28.60281577 20.24595744 28.5859375 22.5078125 C28.56723408 24.07438182 28.5476613 25.64094099 28.5272522 27.20748901 C28.47583748 31.33382183 28.43626197 35.46018734 28.39910889 39.58666992 C28.35912759 43.7961441 28.30800854 48.00548118 28.2578125 52.21484375 C28.16094272 60.47646899 28.07657355 68.73816185 28 77 C31.33455608 76.9475585 34.66663231 76.85235976 38 76.75 C38.93457031 76.73582031 39.86914062 76.72164062 40.83203125 76.70703125 C48.1764233 76.45023433 53.94754288 75.05245712 59.25 69.75 C61.45126546 66.29086856 63.26794713 62.71285801 65 59 C66.485 59.495 66.485 59.495 68 60 C67.19170931 63.62595194 66.37765633 67.2505859 65.5625 70.875 C65.33240234 71.90753906 65.10230469 72.94007813 64.86523438 74.00390625 C64.64287109 74.99003906 64.42050781 75.97617187 64.19140625 76.9921875 C63.98717041 77.90339355 63.78293457 78.81459961 63.57250977 79.75341797 C63 82 63 82 62 84 C41.54 84 21.08 84 0 84 C0 83.01 0 82.02 0 81 C1.134375 80.71125 2.26875 80.4225 3.4375 80.125 C4.613125 79.75375 5.78875 79.3825 7 79 C8.45503793 76.08992414 8.1353584 73.5375034 8.14526367 70.28710938 C8.14862228 69.5975264 8.1519809 68.90794342 8.15544128 68.19746399 C8.16495796 65.91287446 8.16689462 63.62835813 8.16796875 61.34375 C8.17118037 59.75956186 8.17454437 58.17537403 8.17805481 56.59118652 C8.18404754 53.26895459 8.18589452 49.94674868 8.18530273 46.62451172 C8.185201 42.36040259 8.1988644 38.09645955 8.21607494 33.83238983 C8.22717341 30.56051868 8.22922262 27.28868798 8.22869301 24.01679993 C8.22987595 22.44427415 8.23431523 20.87174743 8.24202538 19.29924011 C8.25178389 17.10367054 8.2489641 14.90846562 8.24291992 12.71289062 C8.24505745 10.83664001 8.24505745 10.83664001 8.24723816 8.92248535 C8.30591028 5.87592187 8.30591028 5.87592187 6 4 C4.01178687 3.60235737 2.01055661 3.26224651 0 3 C0 2.01 0 1.02 0 0 Z " fill="#000000" transform="translate(623,561)"/>
</svg>
